<?xml version="1.0" encoding="UTF-8"?>
<svg id="Livello_1" xmlns="http://www.w3.org/2000/svg" xmlns:xlink="http://www.w3.org/1999/xlink" version="1.1" viewBox="0 0 239 92">
  <!-- Generator: Adobe Illustrator 29.7.1, SVG Export Plug-In . SVG Version: 2.1.1 Build 8)  -->
  <defs>
    <style>
      .st0 {
        fill: url(#Sfumatura_senza_nome_1481);
      }

      .st1 {
        fill: url(#Sfumatura_senza_nome_1483);
      }

      .st2 {
        fill: url(#Sfumatura_senza_nome_1482);
      }

      .st3 {
        fill: url(#Sfumatura_senza_nome_148);
      }
    </style>
    <linearGradient id="Sfumatura_senza_nome_148" data-name="Sfumatura senza nome 148" x1="24.7" y1="96.3" x2="215.4" y2="11.6" gradientUnits="userSpaceOnUse">
      <stop offset="0" stop-color="#5000ff"/>
      <stop offset=".2" stop-color="#384bee"/>
      <stop offset=".5" stop-color="#2097de"/>
      <stop offset=".7" stop-color="#0ecfd2"/>
      <stop offset=".9" stop-color="#04f1ca"/>
      <stop offset="1" stop-color="#00ffc8"/>
    </linearGradient>
    <linearGradient id="Sfumatura_senza_nome_1481" data-name="Sfumatura senza nome 148" x1="6.4" y1="50.6" x2="197.1" y2="-34.1" xlink:href="#Sfumatura_senza_nome_148"/>
    <linearGradient id="Sfumatura_senza_nome_1482" data-name="Sfumatura senza nome 148" x1="17.7" y1="76" x2="208.4" y2="-8.7" xlink:href="#Sfumatura_senza_nome_148"/>
    <linearGradient id="Sfumatura_senza_nome_1483" data-name="Sfumatura senza nome 148" x1="38.2" y1="122.3" x2="229" y2="37.6" xlink:href="#Sfumatura_senza_nome_148"/>
  </defs>
  <path class="st3" d="M137.6,39.7c1.2,0,2.1.9,2.1,2.1v16.5c0,4.3.7,10.5,7.7,10.5s7.7-6.2,7.7-10.5v-16.5c0-1.2.9-2.1,2.1-2.1h16.9c1.2,0,2.1.9,2.1,2.1v17.6c0,19-10.2,30.1-28.7,30.1s-28.7-11.1-28.7-30.1v-17.6c0-1.2.9-2.1,2.1-2.1h16.9ZM174,2.7h-53.3c-1.2,0-2.1.9-2.1,2.1v16.9c0,1.2.9,2.1,2.1,2.1h53.3c1.2,0,2.1-.9,2.1-2.1V4.8c0-1.2-.9-2.1-2.1-2.1Z"/>
  <path class="st0" d="M44.1,43.1c2.6-2.5,5.5-7.2,5.5-15.9,0-15.7-9.4-24.7-25.7-24.7H3.9c-.9,0-1.6.7-1.6,1.6v82.7c0,.9.7,1.6,1.6,1.6h21.5c16.3,0,26.9-10.4,26.9-26.4s-2.9-14.8-8.2-19ZM23.6,35.6h-2.1v-13.8h2.1c4.4,0,6.4,2.2,6.4,6.9s-2,6.9-6.4,6.9ZM21.5,54.4h3.9c6.1,0,6.8,5.2,6.8,7.4s-.7,7.4-6.8,7.4h-3.9v-14.8Z"/>
  <path class="st2" d="M100.7,52.4c6.6-4.9,10-12.5,10-22.6s-7.9-27.2-25.7-27.2h-23.3c-.9,0-1.6.7-1.6,1.6v82.7c0,.9.7,1.6,1.6,1.6h16.8c.9,0,1.6-.7,1.6-1.6v-29.9h.8l10.6,30.4c.2.7.8,1.1,1.5,1.1h18.2c.5,0,1-.3,1.3-.7.3-.4.4-1,.2-1.5l-12.1-33.9ZM80.1,22.3h3.2c6,0,7.3,3,7.3,7.4s-1.2,7.4-7.3,7.4h-3.2v-14.8Z"/>
  <path class="st1" d="M235.1,2.5h-17.6c-.9,0-1.6.7-1.6,1.6v30.6h-9.3V4.1c0-.9-.7-1.6-1.6-1.6h-17.6c-.9,0-1.6.7-1.6,1.6v82.7c0,.9.7,1.6,1.6,1.6h17.6c.9,0,1.6-.7,1.6-1.6v-31.8h9.3v31.8c0,.9.7,1.6,1.6,1.6h17.6c.9,0,1.6-.7,1.6-1.6V4.1c0-.9-.7-1.6-1.6-1.6Z"/>
</svg>