<?xml version="1.0" encoding="UTF-8"?>
<svg id="Livello_1" xmlns="http://www.w3.org/2000/svg" xmlns:xlink="http://www.w3.org/1999/xlink" version="1.1" viewBox="0 0 311.9 92">
  <!-- Generator: Adobe Illustrator 29.7.1, SVG Export Plug-In . SVG Version: 2.1.1 Build 8)  -->
  <defs>
    <style>
      .st0 {
        fill: url(#Sfumatura_senza_nome_936);
      }
    </style>
    <linearGradient id="Sfumatura_senza_nome_936" data-name="Sfumatura senza nome 936" x1="7.9" y1="95.2" x2="306" y2="-4.9" gradientUnits="userSpaceOnUse">
      <stop offset="0" stop-color="#96001e"/>
      <stop offset=".4" stop-color="#ff3232"/>
      <stop offset="1" stop-color="#ff9123"/>
    </linearGradient>
  </defs>
  <path class="st0" d="M179.1,37.1c1.2,0,2.1.9,2.1,2.1v17.6c0,8.3,5.7,13,12.7,13s12.7-4.7,12.7-13v-17.6c0-1.2.9-2.1,2.1-2.1h16.9c1.2,0,2.1.9,2.1,2.1v20.2c0,19-15.2,30.1-33.7,30.1s-33.7-11.1-33.7-30.1v-20.2c0-1.2.9-2.1,2.1-2.1h16.9-.2ZM225.5,2.7h-63.3c-1.2,0-2.1.9-2.1,2.1v15.4c0,1.2.9,2.1,2.1,2.1h63.3c1.2,0,2.1-.9,2.1-2.1V4.8c0-1.2-.9-2.1-2.1-2.1ZM60.6,43.1c2.6-2.5,5.5-7.2,5.5-15.9,0-15.7-9.4-24.7-25.7-24.7H5.4c-.9,0-1.6.7-1.6,1.6v82.7c0,.9.7,1.6,1.6,1.6h36.5c16.3,0,26.9-10.4,26.9-26.4s-2.9-14.8-8.2-19h0ZM40.1,35.6h-17.1v-13.8h17.1c4.4,0,6.4,2.2,6.4,6.9s-2,6.9-6.4,6.9ZM23,54.4h18.9c6.1,0,6.8,5.2,6.8,7.4s-.7,7.4-6.8,7.4h-18.9s0-14.8,0-14.8ZM137.2,52.4c6.6-4.9,10-12.5,10-22.6s-7.9-27.2-25.7-27.2h-38.3c-.9,0-1.6.7-1.6,1.6v82.7c0,.9.7,1.6,1.6,1.6h16.8c.9,0,1.6-.7,1.6-1.6v-29.9h15.8l10.6,30.4c.2.7.8,1.1,1.5,1.1h18.2c.5,0,1-.3,1.3-.7.3-.4.4-1,.2-1.5l-12.1-33.9h0ZM101.6,22.3h18.2c6,0,7.3,3,7.3,7.4s-1.2,7.4-7.3,7.4h-18.2v-14.8ZM306.6,2.5h-17.6c-.9,0-1.6.7-1.6,1.6v30.6h-24.3V4.1c0-.9-.7-1.6-1.6-1.6h-17.6c-.9,0-1.6.7-1.6,1.6v82.7c0,.9.7,1.6,1.6,1.6h17.6c.9,0,1.6-.7,1.6-1.6v-31.8h24.3v31.8c0,.9.7,1.6,1.6,1.6h17.6c.9,0,1.6-.7,1.6-1.6V4.1c0-.9-.7-1.6-1.6-1.6Z"/>
</svg>