<?xml version="1.0" encoding="UTF-8"?>
<svg id="Livello_1" xmlns="http://www.w3.org/2000/svg" version="1.1" viewBox="0 0 283.8 98.4">
  <!-- Generator: Adobe Illustrator 29.7.1, SVG Export Plug-In . SVG Version: 2.1.1 Build 8)  -->
  <defs>
    <style>
      .st0 {
        fill: #fff;
      }
    </style>
  </defs>
  <path class="st0" d="M14.5,93.3c-4.4,0-7.9-1.7-10.5-5.1-2.6-3.4-4-8.3-4-14.6s1-10.9,2.9-16.3c1.9-5.4,4.5-10.3,7.6-14.6,3.1-4.4,6.6-7.9,10.4-10.5,3.8-2.6,7.4-4,11-4s6.7.9,8.4,2.8c1.7,1.9,2.5,4.4,2.5,7.5s-1.3,7.4-3.9,11.1c-2.6,3.7-6.2,7-10.9,9.9-4.7,2.9-10.2,5-16.4,6.5-1.8.4-2.8,1.4-2.9,3.1,0,.6-.1,1.2-.1,1.8v1.8c0,4.7.8,8.3,2.4,10.7,1.6,2.4,3.8,3.6,6.6,3.6s6.2-1.4,9.1-4.3c2.9-2.9,5.4-7,7.4-12.3.2-.7.7-1.1,1.5-1.1s.8.2.9.6c.1.4.1.9,0,1.5-2.6,7.3-5.9,12.8-9.6,16.5-3.8,3.7-7.9,5.6-12.3,5.6ZM9.9,61.2c-.2.6,0,1.1.3,1.4.4.4.8.5,1.4.3,5.1-1.4,9.4-3.5,12.9-6.4,3.5-2.9,6.1-6.1,7.9-9.6,1.8-3.6,2.7-7,2.7-10.4s-1.4-5.2-4.1-5.2-5,1.4-7.8,4.2-5.4,6.5-7.8,11c-2.4,4.6-4.2,9.4-5.5,14.6Z"/>
  <path class="st0" d="M48.7,92.2c-1.2,0-1.6-.5-1.4-1.6l11.8-49.5c.4-1.8.5-3.2.2-4.3-.3-1-1.1-1.6-2.3-1.6s-3.1,1.1-4.9,3.3c-1.8,2.2-3.8,6.3-6,12.5-.3,1.1-.9,1.6-1.7,1.6-1.2,0-1.6-.7-1-2.2,1.8-5.7,3.7-10.2,5.8-13.4,2-3.2,4.1-5.5,6.1-6.8,2.1-1.3,4-2,5.7-2,2.7,0,4.7,1,5.8,3,1.2,2,1.2,5.4.1,10l-1.4,5.8c0,.6,0,.9.4,1,.3,0,.6-.1.9-.6,3.1-7.2,6-12.2,8.6-15,2.6-2.8,5.5-4.2,8.8-4.2s3.9.6,5,1.8c1.1,1.2,1.7,2.8,1.7,4.9s-.5,3.7-1.5,5-2.3,1.9-3.8,1.9-2.3-.3-2.9-1c-.6-.7-1-1.4-1.3-2.3-.3-.9-.6-1.6-.9-2.3-.3-.7-.9-1-1.6-1-1.2,0-2.9,1.6-4.8,4.7-2,3.1-4.1,7.4-6.4,12.7-2.3,5.3-4.5,11.3-6.6,17.9-2.1,6.6-4,13.4-5.5,20.3-.2.9-.8,1.4-1.7,1.4h-5.1Z"/>
  <path class="st0" d="M99.7,93.3c-2.8,0-5.3-.8-7.5-2.3-2.2-1.5-3.7-3.8-4.6-6.9-.9-3.1-.8-7,.3-11.6l13.9-59.7c.4-1.5.4-2.5,0-3.1-.4-.6-1.1-.9-2.3-1l-3.7-.4c-1.2,0-1.8-.6-1.6-1.6.2-.7.7-1.2,1.7-1.4,3-.5,5.6-1.1,7.9-1.8,2.3-.7,4.2-1.6,5.6-2.8.7-.5,1.3-.7,1.9-.7,1,0,1.4.6,1.1,1.9l-11.3,48.8c0,.6,0,.9.4,1,.3,0,.6-.1.9-.6,4.5-8.7,8.6-14.7,12.2-17.9,3.6-3.3,7-4.9,10.1-4.9s5.5,1.3,7.3,3.8c1.8,2.6,2.7,6.3,2.7,11.3s-.7,9.5-2,14.2c-1.4,4.8-3.2,9.3-5.6,13.6-2.4,4.3-5,8.1-8.1,11.4-3,3.3-6.2,5.9-9.5,7.9-3.3,1.9-6.6,2.9-9.8,2.9ZM100.1,90.2c2.1,0,4.4-1,6.8-2.9,2.4-1.9,4.7-4.5,7-7.8,2.3-3.3,4.3-6.9,6.1-11,1.8-4.1,3.3-8.3,4.3-12.7,1.1-4.3,1.6-8.5,1.6-12.6s-.3-5.4-1-6.6c-.7-1.3-1.8-1.9-3.5-1.9s-3.9,1.1-6.2,3.4c-2.3,2.2-4.7,5.2-7.1,8.9-2.4,3.7-4.6,7.7-6.7,12-2.1,4.3-3.7,8.5-5,12.7-1.2,4.2-1.9,7.9-1.9,11.1,0,5,1.8,7.6,5.3,7.6Z"/>
  <path class="st0" d="M153.7,93.3c-4.1,0-7.1-1.5-9.1-4.6-2-3.1-2.4-7-1.1-11.8l9.6-35.9c1.1-3.9.4-5.8-2-5.8s-3.5,1.2-5.2,3.7c-1.7,2.5-3.5,6.5-5.5,12.2-.3,1-.9,1.5-1.7,1.5s-.7-.2-1-.6c-.2-.4-.3-.8-.1-1.4,4.8-15,10.8-22.5,18-22.5s4.7,1.2,5.7,3.5c1,2.3,1,5.5-.1,9.6l-9.8,37c-.9,3.5-1,6.1-.2,8,.8,1.9,2.2,2.8,4.3,2.8s4.9-1.2,7.6-3.5c2.7-2.3,5.2-5.3,7.6-9.1,2.4-3.7,4.3-7.8,5.8-12.3,1.5-4.5,2.2-8.9,2.2-13.2s-.4-6.2-1.1-8.3c-.7-2-1.5-3.7-2.3-5.1-.8-1.4-1.2-2.9-1.2-4.6,0-3.2,1.4-4.8,4.2-4.8s6,4.4,6,13.2-.9,12.5-2.7,18.7c-1.8,6.2-4.2,11.7-7.2,16.8-3,5-6.3,9-9.9,12-3.6,3-7.2,4.5-10.9,4.5Z"/>
  <path class="st0" d="M186,98.4c-1.1,0-1.3-.5-.7-1.5l5.8-9.7c-3.1-4.2-4.7-10.1-4.7-17.6s.9-10.5,2.6-15.5c1.7-5,4-9.4,6.9-13.3,2.9-3.9,6-7,9.6-9.2,3.5-2.3,7.1-3.4,10.6-3.4s6.3,1,8.8,2.9l4.5-7.3c.3-.7.8-1,1.5-1h1.1c1.1,0,1.3.5.7,1.5l-5.5,9.1c3.6,4.2,5.5,10.4,5.5,18.6s-.9,10.5-2.6,15.5c-1.7,5-4,9.4-6.9,13.3-2.9,3.9-6,7-9.6,9.2-3.5,2.3-7.1,3.4-10.6,3.4s-7.1-1.2-9.8-3.6l-4.6,7.7c-.3.7-.8,1-1.5,1h-1.1ZM194.9,74.7c0,2.2.1,4.1.4,5.7l27.2-45.2c-1.3-2.7-3.4-4.1-6.2-4.1s-5.1,1.3-7.7,3.8c-2.6,2.5-4.9,5.9-6.9,10.1-2,4.2-3.7,8.9-4.9,14.1-1.2,5.2-1.9,10.4-1.9,15.6ZM202.8,90.3c2.6,0,5.2-1.3,7.8-3.8,2.5-2.6,4.8-6,6.9-10.2,2.1-4.2,3.7-8.9,5-14.1,1.2-5.2,1.9-10.4,1.9-15.6s-.2-5.4-.6-7.4l-27.4,45.7c1.3,3.6,3.5,5.5,6.6,5.5Z"/>
  <path class="st0" d="M241.6,92.2c-1.2,0-1.6-.5-1.4-1.6l11.8-49.5c.4-1.8.5-3.2.2-4.3-.3-1-1.1-1.6-2.3-1.6s-3.1,1.1-4.9,3.3c-1.8,2.2-3.8,6.3-6,12.5-.3,1.1-.9,1.6-1.7,1.6-1.2,0-1.6-.7-1-2.2,1.8-5.7,3.7-10.2,5.8-13.4,2-3.2,4.1-5.5,6.1-6.8,2.1-1.3,4-2,5.7-2,2.7,0,4.7,1,5.8,3,1.2,2,1.2,5.4.1,10l-1.4,5.8c0,.6,0,.9.4,1,.3,0,.6-.1.9-.6,3.1-7.2,6-12.2,8.6-15,2.6-2.8,5.5-4.2,8.8-4.2s3.9.6,5,1.8c1.1,1.2,1.7,2.8,1.7,4.9s-.5,3.7-1.5,5c-1,1.2-2.3,1.9-3.8,1.9s-2.3-.3-2.9-1c-.6-.7-1-1.4-1.3-2.3-.3-.9-.6-1.6-.9-2.3-.3-.7-.9-1-1.6-1-1.2,0-2.9,1.6-4.8,4.7-2,3.1-4.1,7.4-6.4,12.7-2.3,5.3-4.5,11.3-6.6,17.9-2.1,6.6-4,13.4-5.5,20.3-.2.9-.8,1.4-1.7,1.4h-5.1Z"/>
</svg>