<?xml version="1.0" encoding="UTF-8"?>
<svg id="Livello_1" xmlns="http://www.w3.org/2000/svg" version="1.1" viewBox="0 0 283.8 89.6">
  <!-- Generator: Adobe Illustrator 29.7.1, SVG Export Plug-In . SVG Version: 2.1.1 Build 8)  -->
  <defs>
    <style>
      .st0 {
        fill: #fff;
      }
    </style>
  </defs>
  <path class="st0" d="M46.8,52.2c0,2.8-.3,5-.7,6.6H3v-3.5h33.8c3.3,0,4.2-1.7,4.2-5.1,0-8.5-5.9-16.3-15.7-16.3S6.3,43.6,6.3,58.2s9.5,25.5,20.9,25.5,13-2.9,17.5-7.8l1.9,1.6c-4.5,6.8-11.9,11-20.7,11-14,0-25.8-9.6-25.8-29s12-29.2,25.6-29.2,21.3,9.3,21.3,21.8Z"/>
  <path class="st0" d="M57,62.4v-5.6c0-7.5-.1-13.5-.4-18.9l-10.2-.4v-3.1l14.2-3.7,1.4.9.7,15.2v15.7c0,7.2.1,19.3.4,24.5h-6.4c.2-5.3.4-17.3.4-24.5ZM47.1,83.9l12.2-1.4h1.6l12.6,1.4v3h-26.4v-3ZM59.8,46.7h4.3l-2,1.2c3.5-10.4,11.2-17.5,19.1-17.5s7,1.6,7.9,3.5c0,3.6-1.5,5.4-4.8,5.4s-4.1-1.1-6.3-3l-2.7-2.3h5.7c-8.3,1.4-14.1,7.3-18.5,18.4h-2.8v-5.7Z"/>
  <path class="st0" d="M83.2,83.9l12.8-1.4-3,4.5c.2-5.3.4-17.3.4-24.5V6.5l-10.2-.5v-3l14.4-3,1.8.9-.3,16.6v24.7c.1,0,.1,35.9.1,35.9l-.7,9.6-15.1-.8v-3ZM133.9,59.1c0-16-7.4-24.4-17.8-24.4s-11.8,2.5-18.9,10.6l-1.1-1.9c6.3-9.4,14.3-13.1,21.5-13.1,13.2,0,22.5,11.3,22.5,28.3s-9.6,29.8-23.5,29.8-14.3-3-20.4-12.8l1-1.7c6.3,7.2,12.2,10.1,18.7,10.1,9.6,0,18-7.7,18-25Z"/>
  <path class="st0" d="M146.4,36.3l-10.8-1.2v-3.2h24.8v3.2l-12.4,1.2h-1.6ZM148.6,31.9l19.1,50.9-3.1,2.6,19.1-53.5h4.3l-20.9,55.8h-3.2l-22.1-55.8h6.8ZM183.4,36.3l-11.3-1.2v-3.2h21.7v3.2l-8.9,1.2h-1.6Z"/>
  <path class="st0" d="M189,59.7c0-19.7,13-29.3,25.9-29.3s25.9,9.6,25.9,29.3-13.1,28.8-25.9,28.8-25.9-9.1-25.9-28.8ZM192.3,89.6l-2.7-2.2,47.1-58.4,2.7,2.2-47.1,58.4ZM234.2,59.7c0-16.1-7.5-25.8-19.4-25.8s-19.4,9.6-19.4,25.8,7.5,25.3,19.4,25.3,19.4-9.2,19.4-25.3Z"/>
  <path class="st0" d="M251.6,62.4v-5.6c0-7.5-.1-13.5-.4-18.9l-10.2-.4v-3.1l14.2-3.7,1.4.9.7,15.2v15.7c0,7.2.1,19.3.4,24.5h-6.4c.2-5.3.4-17.3.4-24.5ZM241.7,83.9l12.2-1.4h1.6l12.6,1.4v3h-26.4v-3ZM254.4,46.7h4.3l-2,1.2c3.5-10.4,11.2-17.5,19.1-17.5s7,1.6,7.9,3.5c0,3.6-1.5,5.4-4.8,5.4s-4.1-1.1-6.3-3l-2.7-2.3h5.7c-8.3,1.4-14.1,7.3-18.5,18.4h-2.8v-5.7Z"/>
</svg>