<?xml version="1.0" encoding="UTF-8"?>
<svg id="Livello_1" xmlns="http://www.w3.org/2000/svg" version="1.1" viewBox="0 0 404.1 151.5">
  <!-- Generator: Adobe Illustrator 29.7.1, SVG Export Plug-In . SVG Version: 2.1.1 Build 8)  -->
  <defs>
    <style>
      .st0 {
        fill: #fff;
      }
    </style>
  </defs>
  <path class="st0" d="M78.6,25.4l-11.6,3.3c-1.1-3.3-2.7-6.2-4.8-8.9-2.1-2.7-4.8-4.8-8.1-6.3s-7.5-2.3-12.4-2.3c-7.4,0-13.4,1.8-18.2,5.3-4.7,3.5-7.1,8-7.1,13.6s1.6,8.5,4.9,11.4c3.2,2.9,8.2,5.2,15,6.9l16.5,4c9.1,2.2,16,5.8,20.6,10.6,4.6,4.8,6.9,10.9,6.9,18.2s-1.7,11.6-5.1,16.4c-3.4,4.8-8.2,8.5-14.2,11.3s-13.1,4.1-21.1,4.1-19.4-2.4-26.3-7.2c-6.9-4.8-11.3-11.8-13.3-20.8l12.1-3c1.6,6.5,4.6,11.4,9.2,14.7,4.6,3.3,10.6,5,18.1,5s15.1-1.9,20.1-5.6c5-3.8,7.5-8.5,7.5-14.2s-1.5-8.1-4.4-11.1c-2.9-3-7.4-5.2-13.4-6.6l-17.8-4.3c-9.5-2.3-16.5-5.9-21-10.8-4.5-4.9-6.8-11-6.8-18.3s1.6-11.3,4.9-15.9c3.3-4.6,7.8-8.2,13.5-10.8,5.7-2.6,12.3-3.9,19.6-3.9s18,2.3,24,6.8c6,4.5,10.3,10.7,13,18.6Z"/>
  <path class="st0" d="M99.3,151.5c-2.5,0-4.9-.2-7-.7-2.2-.5-3.9-1-5.2-1.6l3.4-11.2c4.3,1.3,8.1,1.8,11.5,1.5,3.4-.4,6.3-1.9,8.9-4.5,2.6-2.7,4.9-6.8,7-12.3l4-11.1L81.8,1.5h13.7l32.4,92.4h1L161.2,1.5h13.7l-46.2,126.3c-1.9,5.3-4.3,9.6-7.2,13.2-2.8,3.5-6.1,6.2-9.8,7.9-3.7,1.7-7.9,2.6-12.5,2.6Z"/>
  <path class="st0" d="M251.9,25.4l-11.6,3.3c-1.1-3.3-2.7-6.2-4.8-8.9-2.1-2.7-4.8-4.8-8.1-6.3s-7.5-2.3-12.4-2.3c-7.4,0-13.4,1.8-18.2,5.3-4.7,3.5-7.1,8-7.1,13.6s1.6,8.5,4.9,11.4c3.2,2.9,8.2,5.2,15,6.9l16.5,4c9.1,2.2,16,5.8,20.6,10.6s6.9,10.9,6.9,18.2-1.7,11.6-5.1,16.4c-3.4,4.8-8.2,8.5-14.2,11.3s-13.1,4.1-21.1,4.1-19.4-2.4-26.3-7.2c-6.9-4.8-11.3-11.8-13.3-20.8l12.1-3c1.6,6.5,4.6,11.4,9.2,14.7,4.6,3.3,10.6,5,18.1,5s15.1-1.9,20.1-5.6c5-3.8,7.5-8.5,7.5-14.2s-1.5-8.1-4.4-11.1c-2.9-3-7.4-5.2-13.4-6.6l-17.8-4.3c-9.5-2.3-16.5-5.9-21-10.8-4.5-4.9-6.8-11-6.8-18.3s1.6-11.3,4.9-15.9c3.3-4.6,7.8-8.2,13.5-10.8,5.7-2.6,12.3-3.9,19.6-3.9s18,2.3,24,6.8c6,4.5,10.3,10.7,13,18.6Z"/>
  <g>
    <path class="st0" d="M257.4,17V5.8h57.4v11.2h-57.4ZM279.7,79.1V12.2h12.8v66.9h-12.8ZM327.6,79.1V5.8h12.7v73.3h-12.7ZM362.4,79.1L330,5.8h13.1l22.7,53.8,22.7-53.8h13.1l-32.5,73.3h-6.8ZM391.3,79.1V5.8h12.7v73.3h-12.7Z"/>
    <rect class="st0" x="265.4" y="95.9" width="138.6" height="11.2"/>
  </g>
</svg>