<?xml version="1.0" encoding="UTF-8"?>
<svg id="Livello_1" xmlns="http://www.w3.org/2000/svg" version="1.1" viewBox="0 0 283.8 151.5">
  <!-- Generator: Adobe Illustrator 29.7.1, SVG Export Plug-In . SVG Version: 2.1.1 Build 8)  -->
  <defs>
    <style>
      .st0 {
        fill: #fff;
      }
    </style>
  </defs>
  <path class="st0" d="M136.7,22c0,8-1.4,16.8-4.1,26.2-2.8,9.5-6.5,19.1-11.3,28.8-4.8,9.8-10.2,19-16.4,27.9-6.2,8.9-12.6,16.8-19.3,23.8-6.7,7.1-13.4,12.6-20.1,16.7-6.7,4.1-13,6.1-19,6.1s-9.3-1.3-12.2-4c-2.9-2.7-4.4-6-4.4-9.8s.8-5.1,2.3-6.5c1.5-1.4,3.2-2.2,5-2.2,2.6,0,4.5.7,5.6,2.1,1.1,1.4,1.9,3,2.5,4.9.6,1.9,1.4,3.5,2.6,4.9,1.2,1.4,3.1,2.1,5.7,2.1,5.1,0,10.2-2,15.1-6.1,5-4.1,9-9.7,12.2-16.8,3.2-7.1,4.6-15.1,4.2-23.9l-3.1-74.4c-.1-3.6-.8-6.1-1.9-7.6-1.1-1.5-2.5-2.2-4.1-2.2-3,0-5.9,1.8-8.7,5.5-2.8,3.7-5,10.6-6.8,20.8-.4,1.6-1.1,2.5-2.2,2.6-1.6.2-2.6-1-2.8-3.4l-.6-9.4c-.6-8.3-1.6-14.2-3.2-17.8-1.6-3.6-4.9-5.4-9.8-5.4s-8,1.5-10.8,4.6c-3.2,3.6-4.6,8-4,13.2s2,7.8,4.2,11.2,5.6,8.2,9.6,13.5c5.7,7.5,9.5,13.4,11.5,17.8,2,4.4,3,8.9,3,13.5s-1.3,11-3.8,15.5c-6.2,11-16.2,14.8-27.4,14.8s-16.8-2-23.2-9.8c-.8-1-1-2.3-.6-3.9l9-26c.6-1.7,1.5-2.5,2.9-2.2,1.5.3,2.1,1.3,1.8,3.2,0,0-11.3,33.5,12.5,33.5s17.7-22.9,16.7-25.7c-1-2.7-2.5-5.6-4.6-8.7-2.1-3.1-4.9-6.9-8.5-11.3-4.7-6.1-8.2-11.3-10.5-15.7-2.3-4.3-3.4-8.9-3.4-13.6,0-8.7,2.7-15.7,8.2-20.9C29.8,2.6,36.7,0,45.1,0s7.3.5,10.9,1.7,6.5,2.8,8.8,5c0,0,0,0,0,0,1,.8,2.5.8,3.4-.1s2.5-2.4,3.8-3.2C75.3,1.1,78.5,0,81.4,0c4.3,0,7.7,1.5,10.2,4.4,2.5,3,3.9,8.1,4.2,15.2l2.9,79.6c0,1,.3,1.6.9,1.8.6.2,1.2,0,1.8-.9,4.8-6.8,9.2-13.8,13.2-21,3.9-7.2,7.1-14.4,9.4-21.4,2.3-7,3.5-13.5,3.5-19.5s-.6-10.4-1.9-13.8c-1.2-3.4-2.5-6.3-3.8-8.6-1.3-2.4-2-4.9-2-7.7C119.7,2.7,122.1,0,126.8,0s9.9,7.3,9.9,22ZM149.8,108.9c11.2,0,21.2-3.8,27.4-14.8,2.6-4.6,3.8-9.7,3.8-15.5s-1-9-3-13.5c-2-4.4-5.8-10.4-11.5-17.8-4.3-5.8-7.7-10.6-10.2-14.4-2.5-3.8-3.7-8-3.7-12.5s1.4-7.9,4.1-11c2.8-3,6.4-4.6,10.8-4.6s8.3,1.8,9.8,5.4c1.6,3.6,2.7,9.5,3.2,17.8l.6,9.9c.3,1.9,1,2.9,2.3,2.9s2.1-.9,2.5-2.7l5.8-27.8c.4-1.5,0-2.8-1.2-3.7-2.4-2.2-5.3-3.9-8.8-5-3.5-1.1-7.2-1.7-10.9-1.7-8.4,0-15.4,2.6-20.8,7.9-5.5,5.3-8.2,12.2-8.2,20.9s1.1,9.2,3.4,13.6,5.8,9.6,10.5,15.6c3.6,4.4,6.4,8.2,8.5,11.3s3.6,6,4.6,8.7c1,2.9,6.8,25.7-16.7,25.7-23.7,0-12.5-33.5-12.5-33.5.3-1.9-.3-3-1.8-3.2s-2.3.5-2.9,2.2l-9,26c-.4,1.6-.2,2.9.6,3.9,6.4,7.7,15.8,9.8,23.2,9.8ZM233.5,11.6v-6.8h-35.2v6.8h35.2ZM219.8,49.7V8.7h-7.8v41h7.8ZM244.7,49.7V4.8h-7.8v45h7.8ZM262.4,49.7l19.9-45h-8.1l-13.9,33-13.9-33h-8.1l19.9,45h4.2ZM283.8,49.7V4.8h-7.8v45h7.8ZM283.8,66.8v-6.8h-80.6v6.8h80.6Z"/>
</svg>